<svg width="500" height="500" version="1.0" viewBox="0 0 375 375"><defs><clipPath id="a"><path d="M257 86.012h53v46.336h-53Zm0 0"/></clipPath><clipPath id="b"><path d="M259.29 94.094c-4.22 6.949-1.247 13.715 2.487 17.304l21.84 20.95 21.375-20.875c3.473-3.864 4.805-7.961 4.067-12.52-1.024-6.312-6.223-11.207-12.645-11.906-3.941-.426-7.746.691-10.719 3.16a14.28 14.28 0 0 0-2.136 2.211 14.846 14.846 0 0 0-2.586-2.504c-3.414-2.594-7.762-3.625-11.938-2.824-3.957.765-7.508 3.316-9.746 7.004"/></clipPath></defs><path fill="#7293a0" d="M76.746 171.223c-1.203 4.222-9.055 15.699-12.066 19.32-3.02 3.625-14.489 9.062-15.094 12.684-.602 3.625 4.828 18.718 12.676 21.136 7.847 2.41 15.093 2.418 17.508 5.434 2.414 3.016 17.5 22.34 13.878 32.004-1.976 5.277-5.746 19.402-8.37 33.832 8.472 1.902 16.96 3.219 25.277 3.82 11.672-21.453 39.078-78.238 50.16-98.45a243.885 243.885 0 0 1 3.363-5.933c-8.164-16.152-17.879-33.8-21.539-37.742-3.89-3.805-21.238-28.535-28.258-28.191a.386.386 0 0 0-.117.015c-2.668.73 1.215 25.758 1.215 25.758S96.5 128.8 92.3 128.8a.715.715 0 0 0-.453.145c-3.024 2.422-1.383 22.961 4.226 32.61-3.633 2.422-18.125 5.441-19.328 9.668ZM126.703 299.523c8.176-.59 15.996-2.03 23.219-4.535h.008c14.441-5 27.453-12.707 38.668-22.914 9.351-8.512 18.054-14.191 25.859-16.894 16.156-5.594 24.914 2.238 27.93 5.867 6.515 7.832 7.144 20.207 1.539 30.094-3.672 6.476-7.754 12.23-12.434 17.421 7.926-3.316 17.762-9.093 25.903-18.992.199-.246.375-.48.574-.722-3.477-14.536-1.063-26.504 2.683-37.602 2.79-8.254 15.008-10.855 37.793-10.855 16.48 0 28.262-5.344 35.024-15.883 6.644-10.363 7.172-23.344 6.254-30.723a4.483 4.483 0 0 0-4.262-3.914c-.95-.043-1.902-.07-2.719-.098-4.187-.113-8.937-.25-13.5-1.48-13.527-3.64-26.191-14.7-34.762-30.332-2.68-4.887-12.804-7.086-20.945-8.848-3.281-.71-6.383-1.383-9.23-2.238-9.785-2.938-15.817-13.918-22.203-25.543-1.516-2.766-3.055-5.562-4.625-8.215-.774-1.312-2.66-1.379-3.524-.12-14.973 21.73-8.719 39.429-10.871 40.753-6.234 2.852-30.129 33.105-40.133 53.281-9.91 20.004-34.57 71.563-46.246 92.492Zm0 0"/><path fill="#ffc857" d="M21.805 271.922c10.246 5.82 21.683 11.148 33.672 15.562-10.293-13.562-18.653-28.949-24.512-45.894C1.129 155.293 47.02 60.805 133.273 30.95c86.25-29.856 180.692 16.062 210.532 102.359 15.46 44.703 10.586 91.605-9.688 130.582 6.297-.422 12.492 2.203 16.711 7.347.508.625.965 1.274 1.395 1.934 22.71-43.746 28.156-96.363 10.816-146.516C329.531 29.754 223.473-21.809 126.621 11.711 29.773 45.23-21.769 151.344 11.738 248.246a187.094 187.094 0 0 0 10.067 23.676Zm0 0"/><path fill="#ffc857" d="M325.047 284.309c4.558-15.766-10.215-24.567-22.531-2.622 5.09-13.332-6.22-23.84-16.996-12.644-7.301 7.582-8.391 15.309-18.922 28.11-24.11 29.32-63.778 32.413-76.555 26.202 22.379-10.402 34.34-21.93 43.512-38.101 7.39-13.027-2.774-35.426-36.934-4.348-53.45 48.63-131.773 35.563-166.148 9.317 45.765 69.425 134.254 101.843 216.422 73.402 40.835-14.133 73.617-41.059 95.417-74.742 5.711-9.754-9.039-21.422-17.265-4.574Zm0 0"/><path fill="#7293a0" d="M231.387 79.14c-1.672-3.07-4.38-6.175-7.957-6.812-14.293-2.535-19.461-8.465 10.699-25.344-17.563-5.468-37.629 10.16-43.664 21.551-14.57-9.543-30.094-7.293-41.926-29.656-12.605 25.57 10.356 49.379 10.356 49.379s-39.18 20.207-49.852 28.258c-1.219.914-.305 2.836 1.176 2.476 16.332-3.972 41.008-23.781 65.363-16.058 4.848 1.914 10.95 2.886 17.516 2.52 12.707-.712 23.12-6.2 25.851-13 1.274.163 2.598.105 3.922-.224 2.941-.734 5.762-2.289 7.324-4.585.84-1.239 2.157-2.075 3.618-2.403 1.472-.332 2.91-.648 4.398-.597.184-3.407-5.055-2.266-6.824-5.504Zm0 0"/><g clip-path="url(#a)"><g clip-path="url(#b)"><path fill="#8a3431" d="M257.227 86.824h52.027v45.524h-52.027Zm0 0"/></g></g></svg>