<svg xmlns="http://www.w3.org/2000/svg" xmlns:xlink="http://www.w3.org/1999/xlink" width="500" zoomAndPan="magnify" viewBox="0 0 375 374.999991" height="500" preserveAspectRatio="xMidYMid meet" version="1.0"><defs><g/><clipPath id="26573c5141"><path d="M 119.886719 176.328125 L 264.113281 176.328125 L 264.113281 198.671875 L 119.886719 198.671875 Z M 119.886719 176.328125 " clip-rule="nonzero"/></clipPath></defs><rect x="-37.5" width="450" fill="#ffffff" y="-37.499999" height="449.999989" fill-opacity="1"/><rect x="-37.5" width="450" fill="#ffffff" y="-37.499999" height="449.999989" fill-opacity="1"/><rect x="-37.5" width="450" fill="#000001" y="-37.499999" height="449.999989" fill-opacity="1"/><g fill="#0b7a75" fill-opacity="1"><g transform="translate(76.488281, 237.374984)"><g><path d="M 84.984375 -49 L 94.921875 -49 L 94.921875 -11.625 C 90.347656 -7.601562 84.929688 -4.519531 78.671875 -2.375 C 72.421875 -0.226562 65.84375 0.84375 58.9375 0.84375 C 49.132812 0.84375 40.3125 -1.300781 32.46875 -5.59375 C 24.632812 -9.894531 18.476562 -15.847656 14 -23.453125 C 9.519531 -31.054688 7.28125 -39.570312 7.28125 -49 C 7.28125 -58.425781 9.519531 -66.941406 14 -74.546875 C 18.476562 -82.148438 24.632812 -88.097656 32.46875 -92.390625 C 40.3125 -96.691406 49.179688 -98.84375 59.078125 -98.84375 C 66.546875 -98.84375 73.40625 -97.648438 79.65625 -95.265625 C 85.914062 -92.890625 91.191406 -89.367188 95.484375 -84.703125 L 89.046875 -78.125 C 81.296875 -85.769531 71.445312 -89.59375 59.5 -89.59375 C 51.5625 -89.59375 44.394531 -87.84375 38 -84.34375 C 31.613281 -80.84375 26.597656 -75.988281 22.953125 -69.78125 C 19.316406 -63.582031 17.5 -56.65625 17.5 -49 C 17.5 -41.34375 19.316406 -34.4375 22.953125 -28.28125 C 26.597656 -22.125 31.59375 -17.269531 37.9375 -13.71875 C 44.28125 -10.175781 51.421875 -8.40625 59.359375 -8.40625 C 69.441406 -8.40625 77.984375 -10.921875 84.984375 -15.953125 Z M 84.984375 -49 "/></g></g></g><g fill="#0b7a75" fill-opacity="1"><g transform="translate(184.702232, 237.374984)"><g><path d="M 97.859375 -98 L 97.859375 0 L 87.640625 0 L 87.640625 -45.21875 L 26.3125 -45.21875 L 26.3125 0 L 15.953125 0 L 15.953125 -98 L 26.3125 -98 L 26.3125 -54.3125 L 87.640625 -54.3125 L 87.640625 -98 Z M 97.859375 -98 "/></g></g></g><g clip-path="url(#26573c5141)"><path fill="#000001" d="M 119.886719 176.328125 L 264.082031 176.328125 L 264.082031 198.429688 L 119.886719 198.429688 Z M 119.886719 176.328125 " fill-opacity="1" fill-rule="nonzero"/></g><g fill="#fbf7f7" fill-opacity="1"><g transform="translate(124.349367, 190.499987)"><g><path d="M 6.0625 -3.5 L 6.78125 -3.5 L 6.78125 -0.828125 C 6.457031 -0.546875 6.070312 -0.328125 5.625 -0.171875 C 5.175781 -0.015625 4.703125 0.0625 4.203125 0.0625 C 3.503906 0.0625 2.875 -0.0859375 2.3125 -0.390625 C 1.757812 -0.703125 1.320312 -1.128906 1 -1.671875 C 0.675781 -2.210938 0.515625 -2.820312 0.515625 -3.5 C 0.515625 -4.175781 0.675781 -4.785156 1 -5.328125 C 1.320312 -5.867188 1.757812 -6.289062 2.3125 -6.59375 C 2.875 -6.90625 3.507812 -7.0625 4.21875 -7.0625 C 4.75 -7.0625 5.238281 -6.972656 5.6875 -6.796875 C 6.132812 -6.628906 6.507812 -6.378906 6.8125 -6.046875 L 6.359375 -5.578125 C 5.804688 -6.128906 5.101562 -6.40625 4.25 -6.40625 C 3.6875 -6.40625 3.175781 -6.28125 2.71875 -6.03125 C 2.257812 -5.78125 1.898438 -5.429688 1.640625 -4.984375 C 1.378906 -4.535156 1.25 -4.039062 1.25 -3.5 C 1.25 -2.957031 1.378906 -2.460938 1.640625 -2.015625 C 1.898438 -1.578125 2.253906 -1.226562 2.703125 -0.96875 C 3.160156 -0.71875 3.671875 -0.59375 4.234375 -0.59375 C 4.953125 -0.59375 5.5625 -0.773438 6.0625 -1.140625 Z M 6.0625 -3.5 "/></g></g></g><g fill="#fbf7f7" fill-opacity="1"><g transform="translate(135.076351, 190.499987)"><g><path d="M 5.921875 0 L 4.3125 -2.25 C 4.132812 -2.226562 3.953125 -2.21875 3.765625 -2.21875 L 1.875 -2.21875 L 1.875 0 L 1.140625 0 L 1.140625 -7 L 3.765625 -7 C 4.648438 -7 5.347656 -6.785156 5.859375 -6.359375 C 6.367188 -5.929688 6.625 -5.34375 6.625 -4.59375 C 6.625 -4.050781 6.484375 -3.59375 6.203125 -3.21875 C 5.929688 -2.84375 5.535156 -2.570312 5.015625 -2.40625 L 6.734375 0 Z M 3.734375 -2.84375 C 4.429688 -2.84375 4.960938 -2.992188 5.328125 -3.296875 C 5.691406 -3.609375 5.875 -4.039062 5.875 -4.59375 C 5.875 -5.164062 5.691406 -5.601562 5.328125 -5.90625 C 4.960938 -6.207031 4.429688 -6.359375 3.734375 -6.359375 L 1.875 -6.359375 L 1.875 -2.84375 Z M 3.734375 -2.84375 "/></g></g></g><g fill="#fbf7f7" fill-opacity="1"><g transform="translate(145.303538, 190.499987)"><g><path d="M 5.53125 -1.875 L 1.625 -1.875 L 0.796875 0 L 0.015625 0 L 3.21875 -7 L 3.953125 -7 L 7.15625 0 L 6.375 0 Z M 5.265625 -2.46875 L 3.578125 -6.234375 L 1.90625 -2.46875 Z M 5.265625 -2.46875 "/></g></g></g><g fill="#fbf7f7" fill-opacity="1"><g transform="translate(155.470746, 190.499987)"><g><path d="M 3.546875 -2.421875 L 3.546875 0 L 2.8125 0 L 2.8125 -2.421875 L 0.015625 -7 L 0.796875 -7 L 3.203125 -3.0625 L 5.59375 -7 L 6.34375 -7 Z M 3.546875 -2.421875 "/></g></g></g><g fill="#fbf7f7" fill-opacity="1"><g transform="translate(164.818282, 190.499987)"><g><path d="M 3.0625 0.0625 C 2.550781 0.0625 2.054688 -0.0195312 1.578125 -0.1875 C 1.097656 -0.351562 0.726562 -0.570312 0.46875 -0.84375 L 0.765625 -1.421875 C 1.015625 -1.171875 1.347656 -0.960938 1.765625 -0.796875 C 2.191406 -0.640625 2.625 -0.5625 3.0625 -0.5625 C 3.695312 -0.5625 4.171875 -0.675781 4.484375 -0.90625 C 4.796875 -1.144531 4.953125 -1.445312 4.953125 -1.8125 C 4.953125 -2.09375 4.863281 -2.316406 4.6875 -2.484375 C 4.519531 -2.648438 4.3125 -2.773438 4.0625 -2.859375 C 3.820312 -2.953125 3.484375 -3.050781 3.046875 -3.15625 C 2.515625 -3.289062 2.09375 -3.421875 1.78125 -3.546875 C 1.46875 -3.671875 1.195312 -3.859375 0.96875 -4.109375 C 0.75 -4.359375 0.640625 -4.703125 0.640625 -5.140625 C 0.640625 -5.492188 0.734375 -5.816406 0.921875 -6.109375 C 1.109375 -6.398438 1.394531 -6.628906 1.78125 -6.796875 C 2.164062 -6.972656 2.644531 -7.0625 3.21875 -7.0625 C 3.613281 -7.0625 4.003906 -7.003906 4.390625 -6.890625 C 4.773438 -6.785156 5.109375 -6.632812 5.390625 -6.4375 L 5.140625 -5.84375 C 4.847656 -6.039062 4.535156 -6.1875 4.203125 -6.28125 C 3.867188 -6.382812 3.539062 -6.4375 3.21875 -6.4375 C 2.601562 -6.4375 2.140625 -6.316406 1.828125 -6.078125 C 1.523438 -5.835938 1.375 -5.53125 1.375 -5.15625 C 1.375 -4.875 1.457031 -4.648438 1.625 -4.484375 C 1.789062 -4.316406 2.003906 -4.1875 2.265625 -4.09375 C 2.523438 -4 2.867188 -3.898438 3.296875 -3.796875 C 3.804688 -3.671875 4.21875 -3.546875 4.53125 -3.421875 C 4.851562 -3.296875 5.125 -3.109375 5.34375 -2.859375 C 5.570312 -2.609375 5.6875 -2.269531 5.6875 -1.84375 C 5.6875 -1.488281 5.585938 -1.164062 5.390625 -0.875 C 5.203125 -0.59375 4.910156 -0.363281 4.515625 -0.1875 C 4.128906 -0.0195312 3.644531 0.0625 3.0625 0.0625 Z M 3.0625 0.0625 "/></g></g></g><g fill="#fbf7f7" fill-opacity="1"><g transform="translate(173.965887, 190.499987)"><g><path d="M 4.203125 0.0625 C 3.503906 0.0625 2.875 -0.09375 2.3125 -0.40625 C 1.75 -0.71875 1.304688 -1.140625 0.984375 -1.671875 C 0.671875 -2.210938 0.515625 -2.820312 0.515625 -3.5 C 0.515625 -4.175781 0.671875 -4.78125 0.984375 -5.3125 C 1.304688 -5.851562 1.75 -6.28125 2.3125 -6.59375 C 2.875 -6.90625 3.503906 -7.0625 4.203125 -7.0625 C 4.890625 -7.0625 5.507812 -6.90625 6.0625 -6.59375 C 6.625 -6.289062 7.066406 -5.867188 7.390625 -5.328125 C 7.710938 -4.785156 7.875 -4.175781 7.875 -3.5 C 7.875 -2.820312 7.710938 -2.210938 7.390625 -1.671875 C 7.066406 -1.128906 6.625 -0.703125 6.0625 -0.390625 C 5.507812 -0.0859375 4.890625 0.0625 4.203125 0.0625 Z M 4.203125 -0.59375 C 4.753906 -0.59375 5.253906 -0.71875 5.703125 -0.96875 C 6.148438 -1.21875 6.5 -1.566406 6.75 -2.015625 C 7 -2.460938 7.125 -2.957031 7.125 -3.5 C 7.125 -4.039062 7 -4.535156 6.75 -4.984375 C 6.5 -5.429688 6.148438 -5.78125 5.703125 -6.03125 C 5.253906 -6.28125 4.753906 -6.40625 4.203125 -6.40625 C 3.648438 -6.40625 3.144531 -6.28125 2.6875 -6.03125 C 2.238281 -5.78125 1.882812 -5.429688 1.625 -4.984375 C 1.375 -4.535156 1.25 -4.039062 1.25 -3.5 C 1.25 -2.957031 1.375 -2.460938 1.625 -2.015625 C 1.882812 -1.566406 2.238281 -1.21875 2.6875 -0.96875 C 3.144531 -0.71875 3.648438 -0.59375 4.203125 -0.59375 Z M 4.203125 -0.59375 "/></g></g></g><g fill="#fbf7f7" fill-opacity="1"><g transform="translate(185.352609, 190.499987)"><g><path d="M 6.984375 -7 L 6.984375 0 L 6.375 0 L 1.875 -5.6875 L 1.875 0 L 1.140625 0 L 1.140625 -7 L 1.75 -7 L 6.265625 -1.3125 L 6.265625 -7 Z M 6.984375 -7 "/></g></g></g><g fill="#fbf7f7" fill-opacity="1"><g transform="translate(196.479436, 190.499987)"><g/></g></g><g fill="#fbf7f7" fill-opacity="1"><g transform="translate(202.098444, 190.499987)"><g><path d="M 6.984375 -7 L 6.984375 0 L 6.265625 0 L 6.265625 -3.234375 L 1.875 -3.234375 L 1.875 0 L 1.140625 0 L 1.140625 -7 L 1.875 -7 L 1.875 -3.875 L 6.265625 -3.875 L 6.265625 -7 Z M 6.984375 -7 "/></g></g></g><g fill="#fbf7f7" fill-opacity="1"><g transform="translate(213.225277, 190.499987)"><g><path d="M 5.53125 -1.875 L 1.625 -1.875 L 0.796875 0 L 0.015625 0 L 3.21875 -7 L 3.953125 -7 L 7.15625 0 L 6.375 0 Z M 5.265625 -2.46875 L 3.578125 -6.234375 L 1.90625 -2.46875 Z M 5.265625 -2.46875 "/></g></g></g><g fill="#fbf7f7" fill-opacity="1"><g transform="translate(223.392482, 190.499987)"><g><path d="M 5.921875 0 L 4.3125 -2.25 C 4.132812 -2.226562 3.953125 -2.21875 3.765625 -2.21875 L 1.875 -2.21875 L 1.875 0 L 1.140625 0 L 1.140625 -7 L 3.765625 -7 C 4.648438 -7 5.347656 -6.785156 5.859375 -6.359375 C 6.367188 -5.929688 6.625 -5.34375 6.625 -4.59375 C 6.625 -4.050781 6.484375 -3.59375 6.203125 -3.21875 C 5.929688 -2.84375 5.535156 -2.570312 5.015625 -2.40625 L 6.734375 0 Z M 3.734375 -2.84375 C 4.429688 -2.84375 4.960938 -2.992188 5.328125 -3.296875 C 5.691406 -3.609375 5.875 -4.039062 5.875 -4.59375 C 5.875 -5.164062 5.691406 -5.601562 5.328125 -5.90625 C 4.960938 -6.207031 4.429688 -6.359375 3.734375 -6.359375 L 1.875 -6.359375 L 1.875 -2.84375 Z M 3.734375 -2.84375 "/></g></g></g><g fill="#fbf7f7" fill-opacity="1"><g transform="translate(233.619665, 190.499987)"><g><path d="M 6.953125 -7 L 3.859375 0 L 3.125 0 L 0.03125 -7 L 0.828125 -7 L 3.515625 -0.921875 L 6.203125 -7 Z M 6.953125 -7 "/></g></g></g><g fill="#fbf7f7" fill-opacity="1"><g transform="translate(243.596944, 190.499987)"><g><path d="M 6.09375 -0.640625 L 6.09375 0 L 1.140625 0 L 1.140625 -7 L 5.9375 -7 L 5.9375 -6.359375 L 1.875 -6.359375 L 1.875 -3.875 L 5.5 -3.875 L 5.5 -3.234375 L 1.875 -3.234375 L 1.875 -0.640625 Z M 6.09375 -0.640625 "/></g></g></g><g fill="#fbf7f7" fill-opacity="1"><g transform="translate(253.284345, 190.499987)"><g><path d="M 3.546875 -2.421875 L 3.546875 0 L 2.8125 0 L 2.8125 -2.421875 L 0.015625 -7 L 0.796875 -7 L 3.203125 -3.0625 L 5.59375 -7 L 6.34375 -7 Z M 3.546875 -2.421875 "/></g></g></g></svg>